<?xml version="1.0" standalone="no"?>
<!DOCTYPE svg PUBLIC "-//W3C//DTD SVG 20010904//EN"
 "http://www.w3.org/TR/2001/REC-SVG-20010904/DTD/svg10.dtd">
<svg version="1.0" xmlns="http://www.w3.org/2000/svg"
 width="1280.000000pt" height="1280.000000pt" viewBox="0 0 1280.000000 1280.000000"
 preserveAspectRatio="xMidYMid meet">
<metadata>
Created by potrace 1.14, written by Peter Selinger 2001-2017
</metadata>
<g transform="translate(0.000000,1280.000000) scale(0.100000,-0.100000)"
fill="#000000" stroke="none">
<path d="M3678 9759 c-15 -4 -28 -5 -30 -3 -2 2 -4 -134 -3 -300 0 -179 -4
-302 -9 -299 -5 4 -5 0 0 -8 12 -20 12 -889 -1 -889 -6 0 -6 -3 0 -8 14 -9 14
-152 0 -152 -7 0 -6 -3 0 -8 14 -10 14 -784 0 -794 -7 -5 -6 -8 0 -8 14 0 14
-150 0 -150 -7 0 -6 -3 0 -8 13 -9 14 -1183 1 -1175 -5 4 -5 0 0 -8 11 -19 12
-639 0 -632 -5 4 -5 0 0 -8 12 -20 12 -249 -1 -249 -6 0 -6 -3 0 -8 14 -9 14
-152 0 -152 -7 0 -6 -3 0 -8 14 -10 14 -784 0 -794 -7 -5 -6 -8 0 -8 14 0 14
-150 0 -150 -6 0 -6 -3 1 -8 13 -9 13 -144 -1 -154 -7 -5 -6 -8 0 -8 14 0 14
-150 0 -150 -6 0 -6 -3 0 -8 14 -10 14 -784 0 -794 -7 -5 -6 -8 1 -8 13 0 13
-142 -1 -152 -7 -5 -7 -8 0 -8 7 0 10 -125 10 -360 l-1 -360 30 0 c96 -1 1906
-1 1931 -1 l30 1 -1 3913 c-1 2151 -2 3916 -3 3920 0 5 -7 5 -13 0 -17 -10
-38 -10 -65 -1 -12 4 -25 3 -28 -2 -4 -7 -13 -6 -26 0 -12 7 -19 7 -19 1 0 -6
-11 -6 -30 -1 -16 5 -30 6 -30 2 0 -4 -11 -7 -25 -7 -14 0 -25 4 -25 8 0 4 -8
3 -18 -2 -10 -5 -24 -6 -31 -2 -7 5 -28 5 -47 1 -20 -5 -37 -4 -40 2 -4 5 -10
5 -17 0 -7 -5 -21 -6 -32 -2 -11 4 -30 3 -43 -1 -14 -6 -31 -5 -43 1 -13 7
-19 7 -19 1 0 -7 -8 -7 -23 -2 -13 5 -30 5 -37 1 -8 -5 -22 -4 -31 1 -12 6
-20 5 -24 -1 -4 -6 -11 -7 -17 -4 -13 8 -137 8 -145 0 -3 -3 -14 -1 -24 5 -13
6 -19 6 -19 0 0 -7 -8 -7 -23 -2 -13 5 -30 5 -37 1 -8 -5 -22 -4 -31 1 -12 6
-20 5 -24 -1 -4 -6 -11 -7 -17 -4 -12 8 -158 7 -165 0 -3 -3 -16 -1 -29 4 -14
6 -26 6 -29 -1 -4 -5 -11 -7 -16 -3 -9 5 -86 9 -99 4 -17 -6 -60 -4 -60 2 0 4
-11 3 -25 -2 -14 -5 -27 -5 -30 -1 -5 10 -24 9 -40 -1 -5 -3 -19 -2 -30 2 -11
4 -30 4 -42 -1 -13 -5 -25 -4 -28 2 -4 5 -12 6 -18 2 -16 -10 -37 -10 -64 -1
-12 4 -25 3 -28 -2 -4 -7 -13 -6 -26 0 -12 7 -19 7 -19 1 0 -6 -11 -6 -29 -1
-15 4 -34 4 -42 0 -7 -5 -21 -4 -31 1 -10 5 -18 6 -18 1 0 -10 -42 -10 -50 -1
-3 3 -17 2 -32 -2z"/>
<path d="M6148 9252 l-26 -3 1 -196 c1 -107 -1 -200 -5 -206 -4 -6 -4 -15 -1
-21 4 -5 6 -80 5 -165 -1 -86 -2 -163 -2 -171 0 -8 0 -52 1 -97 0 -71 3 -83
17 -83 255 -7 922 -3 923 5 1 6 2 218 3 473 1 304 -2 462 -9 463 -42 2 -886 3
-907 1z"/>
<path d="M6126 7660 c-2 -3 -2 -21 -2 -40 1 -19 -2 -45 -6 -57 -4 -13 -4 -23
0 -23 6 0 7 -85 2 -315 0 -16 1 -88 1 -160 1 -71 0 -134 -1 -140 -1 -5 -1 -12
0 -15 1 -4 2 -237 1 -325 -1 -16 0 -664 0 -1440 1 -775 0 -1414 -1 -1420 -1
-5 -1 -12 0 -15 1 -4 2 -244 0 -325 0 -16 1 -88 1 -160 1 -71 0 -134 -1 -140
-1 -5 -1 -12 0 -15 1 -4 2 -228 1 -325 -1 -16 0 -207 0 -422 l2 -393 143 -1
c187 -1 747 -1 777 0 l22 1 0 2859 c0 1573 -3 2863 -7 2867 -9 8 -928 12 -932
4z"/>
<path d="M7374 6593 c0 -100 4 -184 7 -188 5 -5 562 -8 1086 -5 40 0 72 3 72
8 -1 4 -1 12 0 17 1 6 2 51 1 100 -1 50 -1 97 -1 105 2 54 -1 135 -5 139 -2 2
-264 5 -583 5 l-578 1 1 -182z"/>
</g>
</svg>
